#!OML:ASF H:\Punching\Project 1\Capture day 1\Session 1\female.ASF
:FULLY-SPECIFIED
:DEGREES
2198
root -0.209534 15.9048 29.473 -269.133 86.9988 -283.303
lowerback -5.06977 0.188459 3.31421
upperback -6.83529 0.354931 -1.92939
thorax -4.21805 0.069582 -3.86437
lowerneck -3.03013 11.6058 17.966
upperneck 32.2939 25.8305 -21.2422
head 18.4178 12.4306 -7.51447
rclavicle 2.26118e-015 -1.88845e-015
rhumerus -40.1554 -3.81753 -65.5257
rradius 21.5452
rwrist 17.4762
rhand -13.964 -8.06837
rfingers 7.12502
rthumb 12.1638 -37.6947
lclavicle 2.26118e-015 -1.88845e-015
lhumerus -40.287 7.07822 69.6114
lradius 45.2969
lwrist -9.92841
lhand -11.6024 14.4349
lfingers 7.12502
lthumb 14.4401 43.9126
rfemur -18.0421 11.8265 12.573
rtibia 23.0419
rfoot -21.1697 0.43375
rtoes 1.61686
lfemur -26.7344 -15.4247 -18.4938
ltibia 30.763
lfoot -14.4325 -8.88791
ltoes -3.01965
2199
root -0.2306 15.9148 29.5181 -249.801 86.9455 -264.104
lowerback -4.91595 0.261863 3.34212
upperback -6.8133 0.45694 -1.93272
thorax -4.27184 0.118672 -3.88321
lowerneck -2.77445 11.7115 18.1407
upperneck 32.0033 26.1205 -21.5014
head 18.3887 12.5952 -7.58262
rclavicle 2.91033e-015 -1.19271e-015
rhumerus -39.5729 -3.66772 -64.9116
rradius 21.5408
rwrist 17.574
rhand -13.9898 -8.0965
rfingers 7.12502
rthumb 12.1389 -37.7243
lclavicle 2.91033e-015 -1.19271e-015
lhumerus -40.6124 7.62597 69.0645
lradius 44.959
lwrist -9.71995
lhand -11.8074 14.8041
lfingers 7.12502
lthumb 14.2426 44.2957
rfemur -17.8916 11.5742 12.7526
rtibia 22.8059
rfoot -21.1664 -0.372576
rtoes 1.51967
lfemur -27.2682 -14.4929 -18.8786
ltibia 31.2412
lfoot -14.5232 -7.97493
ltoes -3.52109
2200
root -0.25136 15.9241 29.5623 -232.924 86.5942 -247.339
lowerback -4.75176 0.323682 3.36163
upperback -6.78284 0.543729 -1.91675
thorax -4.32389 0.160841 -3.87768
lowerneck -2.51343 11.8126 18.3159
upperneck 31.7023 26.4045 -21.773
head 18.3566 12.7578 -7.65779
rclavicle -1.59028e-015 -1.39149e-015
rhumerus -38.9543 -3.60527 -64.2212
rradius 21.5085
rwrist 17.7482
rhand -13.9978 -8.11
rfingers 7.12502
rthumb 12.1312 -37.7383
lclavicle -1.59028e-015 -1.39149e-015
lhumerus -40.9458 8.08861 68.5357
lradius 44.6042
lwrist -9.61621
lhand -11.9476 15.103
lfingers 7.12502
lthumb 14.1075 44.6041
rfemur -17.7203 11.3664 12.9429
rtibia 22.5631
rfoot -21.1664 -1.21986
rtoes 1.39244
lfemur -27.7508 -13.5574 -19.2756
ltibia 31.665
lfoot -14.6927 -7.09952
ltoes -4.0049
2201
root -0.271464 15.9331 29.605 -219.997 86.0256 -234.515
lowerback -4.60206 0.366884 3.36096
upperback -6.74052 0.605813 -1.86435
thorax -4.35768 0.192764 -3.8229
lowerneck -2.25595 11.9217 18.4503
upperneck 31.3909 26.7 -22.0436
head 18.3173 12.9203 -7.72045
rclavicle -1.45361e-015 3.57812e-015
rhumerus -38.2735 -3.57809 -63.4583
rradius 21.453
rwrist 17.9659
rhand -14.0138 -8.12092
rfingers 7.12502
rthumb 12.1158 -37.7501
lclavicle -1.45361e-015 3.57812e-015
lhumerus -41.2975 8.53127 68.031
lradius 44.2281
lwrist -9.66457
lhand -12.0286 15.2997
lfingers 7.12502
lthumb 14.0294 44.8062
rfemur -17.5418 11.179 13.1376
rtibia 22.3163
rfoot -21.1759 -2.08182
rtoes 1.2291
lfemur -28.1993 -12.5929 -19.6776
ltibia 32.0311
lfoot -14.8768 -6.38871
ltoes -4.17861
2202
root -0.291202 15.9411 29.6463 -210.371 85.3092 -224.984
lowerback -4.46454 0.398231 3.35506
upperback -6.68872 0.651924 -1.7877
thorax -4.37633 0.217792 -3.73991
lowerneck -2.00838 12.0206 18.5653
upperneck 31.0808 26.9812 -22.3195
head 18.2766 13.0745 -7.7855
rclavicle 9.1472e-015 -5.36719e-015
rhumerus -37.5565 -3.62556 -62.6281
rradius 21.3745
rwrist 18.2134
rhand -14.0483 -8.13228
rfingers 7.12502
rthumb 12.0826 -37.7634
lclavicle 9.1472e-015 -5.36719e-015
lhumerus -41.6416 8.89881 67.5428
lradius 43.8203
lwrist -9.86897
lhand -11.9803 15.3906
lfingers 7.12502
lthumb 14.076 44.8939
rfemur -17.3578 11.0099 13.3386
rtibia 22.0734
rfoot -21.2018 -2.96892
rtoes 1.05816
lfemur -28.6168 -11.708 -20.0665
ltibia 32.3368
lfoot -15.0816 -5.7124
ltoes -4.40273
2203
root -0.310218 15.9489 29.6856 -203.501 84.4957 -218.21
lowerback -4.35038 0.416671 3.31472
upperback -6.63196 0.681144 -1.68501
thorax -4.37843 0.23698 -3.61026
lowerneck -1.77142 12.1192 18.6337
upperneck 30.775 27.2651 -22.5916
head 18.2339 13.2249 -7.83894
rclavicle 2.26118e-015 1.98785e-015
rhumerus -36.7922 -3.70538 -61.7356
rradius 21.2764
rwrist 18.4641
rhand -14.1833 -8.18042
rfingers 7.12502
rthumb 11.9524 -37.8192
lclavicle 2.26118e-015 1.98785e-015
lhumerus -41.992 9.24335 67.0797
lradius 43.3821
lwrist -10.2417
lhand -11.8387 15.3938
lfingers 7.12502
lthumb 14.2125 44.8876
rfemur -17.1854 10.8346 13.5192
rtibia 21.8401
rfoot -21.2434 -3.85215
rtoes 0.843098
lfemur -29.0088 -10.9099 -20.4573
ltibia 32.5779
lfoot -15.2806 -5.07497
ltoes -4.63625
2204
root -0.327834 15.9561 29.7233 -198.399 83.6203 -213.21
lowerback -4.25458 0.433977 3.30117
upperback -6.58179 0.708042 -1.60203
thorax -4.37747 0.253439 -3.51635
lowerneck -1.5424 12.2077 18.7122
upperneck 30.491 27.5217 -22.835
head 18.1916 13.3659 -7.88854
rclavicle -4.44781e-015 0
rhumerus -36.0443 -3.91774 -60.8217
rradius 21.163
rwrist 18.752
rhand -14.3435 -8.24076
rfingers 7.12502
rthumb 11.7978 -37.8885
lclavicle -4.44781e-015 0
lhumerus -42.3363 9.43851 66.6347
lradius 42.9295
lwrist -10.6868
lhand -11.6423 15.3637
lfingers 7.12502
lthumb 14.4017 44.8441
rfemur -17.0238 10.6445 13.693
rtibia 21.6219
rfoot -21.3038 -4.72696
rtoes 0.620118
lfemur -29.3733 -10.2406 -20.8273
ltibia 32.7548
lfoot -15.471 -4.42437
ltoes -4.95687
2205
root -0.344001 15.9629 29.7593 -194.5 82.7095 -209.421
lowerback -4.17683 0.453861 3.31912
upperback -6.54358 0.737887 -1.54006
thorax -4.37873 0.269518 -3.46215
lowerneck -1.32312 12.2801 18.8065
upperneck 30.237 27.7448 -23.0507
head 18.1538 13.4955 -7.93814
rclavicle -8.18123e-015 -1.11319e-014
rhumerus -35.3264 -4.27842 -59.8861
rradius 21.0363
rwrist 19.089
rhand -14.5313 -8.30671
rfingers 7.12502
rthumb 11.6168 -37.9647
lclavicle -8.18123e-015 -1.11319e-014
lhumerus -42.6676 9.51337 66.204
lradius 42.4533
lwrist -11.2032
lhand -11.3991 15.3077
lfingers 7.12502
lthumb 14.636 44.7712
rfemur -16.8827 10.4548 13.8605
rtibia 21.4252
rfoot -21.3769 -5.59771
rtoes 0.420542
lfemur -29.7166 -9.69639 -21.1664
ltibia 32.8656
lfoot -15.64 -3.73854
ltoes -5.35502
2206
root -0.358968 15.9689 29.7936 -191.376 81.7779 -206.418
lowerback -4.10927 0.487708 3.40291
upperback -6.52318 0.785458 -1.52436
thorax -4.3912 0.290278 -3.49344
lowerneck -1.11096 12.3334 18.9548
upperneck 30.0187 27.9231 -23.2291
head 18.1236 13.6132 -7.9937
rclavicle 2.63825e-014 -3.57812e-015
rhumerus -34.6823 -4.81866 -58.959
rradius 20.9071
rwrist 19.4637
rhand -14.7622 -8.39174
rfingers 7.12502
rthumb 11.3941 -38.0622
lclavicle 2.63825e-014 -3.57812e-015
lhumerus -42.979 9.48529 65.7588
lradius 41.9545
lwrist -11.8164
lhand -11.1242 15.2221
lfingers 7.12502
lthumb 14.9009 44.6662
rfemur -16.7611 10.2557 14.0325
rtibia 21.2463
rfoot -21.451 -6.44035
rtoes 0.27948
lfemur -30.0419 -9.27651 -21.4624
ltibia 32.9175
lfoot -15.7905 -2.97975
ltoes -5.87384
2207
root -0.372596 15.9744 29.826 -188.893 80.8217 -204.065
lowerback -4.05262 0.521319 3.52077
upperback -6.5205 0.832555 -1.54057
thorax -4.41589 0.308378 -3.5774
lowerneck -0.907777 12.3804 19.123
upperneck 29.8355 28.0796 -23.3638
head 18.0997 13.7243 -8.03928
rclavicle 4.5208e-015 2.46493e-014
rhumerus -34.0929 -5.49212 -58.044
rradius 20.779
rwrist 19.8586
rhand -15.0332 -8.49167
rfingers 7.12502
rthumb 11.1327 -38.1764
lclavicle 4.5208e-015 2.46493e-014
lhumerus -43.3023 9.43395 65.2994
lradius 41.4475
lwrist -12.5263
lhand -10.8146 15.0966
lfingers 7.12502
lthumb 15.1991 44.5184
rfemur -16.6563 10.0353 14.1926
rtibia 21.0877
rfoot -21.5262 -7.24772
rtoes 0.194902
lfemur -30.354 -8.94592 -21.7282
ltibia 32.9162
lfoot -15.9065 -2.21494
ltoes -6.22128
2208
root -0.384871 15.9789 29.8564 -186.758 79.8515 -202.061
lowerback -4.0034 0.554983 3.69599
upperback -6.52987 0.879272 -1.58158
thorax -4.44866 0.322922 -3.7198
lowerneck -0.709144 12.4158 19.3197
upperneck 29.6758 28.2109 -23.4759
head 18.0813 13.8281 -8.08745
rclavicle 2.2472e-015 2.18663e-014
rhumerus -33.5585 -6.21507 -57.1807
rradius 20.6666
rwrist 20.1828
rhand -15.3361 -8.6139
rfingers 7.12502
rthumb 10.8406 -38.3141
lclavicle 2.2472e-015 2.18663e-014
lhumerus -43.6333 9.38197 64.8084
lradius 40.9352
lwrist -13.3114
lhand -10.4821 14.9291
lfingers 7.12502
lthumb 15.5194 44.3263
rfemur -16.5539 9.80537 14.3666
rtibia 20.9429
rfoot -21.6038 -8.01456
rtoes 0.207837
lfemur -30.644 -8.73448 -21.9387
ltibia 32.8729
lfoot -16.0046 -1.34746
ltoes -6.63117
2209
root -0.39615 15.9826 29.8853 -184.919 78.8528 -200.363
lowerback -3.97761 0.587673 3.89563
upperback -6.54598 0.924189 -1.63825
thorax -4.4751 0.335317 -3.89227
lowerneck -0.533827 12.4432 19.5193
upperneck 29.5437 28.3166 -23.5526
head 18.0651 13.9199 -8.12634
rclavicle 7.32708e-015 9.14409e-015
rhumerus -33.0747 -6.96564 -56.3587
rradius 20.5848
rwrist 20.404
rhand -15.6494 -8.76268
rfingers 7.12502
rthumb 10.5383 -38.4785
lclavicle 7.32708e-015 9.14409e-015
lhumerus -43.9523 9.31696 64.321
lradius 40.4188
lwrist -14.1291
lhand -10.1462 14.7458
lfingers 7.12502
lthumb 15.8429 44.1176
rfemur -16.4623 9.56643 14.5398
rtibia 20.8099
rfoot -21.6886 -8.7461
rtoes 0.355574
lfemur -30.9343 -8.5791 -22.1101
ltibia 32.7947
lfoot -16.0607 -0.477092
ltoes -6.9278
2210
root -0.40691 15.9855 29.9132 -183.185 77.832 -198.777
lowerback -3.98124 0.617374 4.12753
upperback -6.5595 0.964188 -1.68972
thorax -4.48242 0.344428 -4.0772
lowerneck -0.38546 12.463 19.7088
upperneck 29.4282 28.4027 -23.6125
head 18.0509 13.9999 -8.16029
rclavicle 1.48182e-014 8.74653e-015
rhumerus -32.6215 -7.67962 -55.5936
rradius 20.5447
rwrist 20.4571
rhand -15.9879 -8.95502
rfingers 7.12502
rthumb 10.2118 -38.6872
lclavicle 1.48182e-014 8.74653e-015
lhumerus -44.2519 9.26449 63.8446
lradius 39.9043
lwrist -14.9591
lhand -9.84803 14.5728
lfingers 7.12502
lthumb 16.13 43.9216
rfemur -16.3771 9.33922 14.7444
rtibia 20.6776
rfoot -21.7723 -9.46346
rtoes 0.624847
lfemur -31.2276 -8.48158 -22.2123
ltibia 32.6916
lfoot -16.0841 0.416884
ltoes -7.22543
2211
root -0.417505 15.9878 29.9407 -181.596 76.7883 -197.34
lowerback -4.00752 0.642031 4.35035
upperback -6.56771 0.997225 -1.71743
thorax -4.47214 0.351617 -4.23179
lowerneck -0.268776 12.4762 19.8587
upperneck 29.3282 28.4765 -23.6615
head 18.0375 14.068 -8.18463
rclavicle 1.65488e-014 7.15625e-015
rhumerus -32.1844 -8.33687 -54.8587
rradius 20.5491
rwrist 20.3475
rhand -16.3154 -9.17267
rfingers 7.12502
rthumb 9.89592 -38.9201
lclavicle 1.65488e-014 7.15625e-015
lhumerus -44.5243 9.22685 63.4033
lradius 39.3922
lwrist -15.7379
lhand -9.61543 14.4317
lfingers 7.12502
lthumb 16.354 43.7621
rfemur -16.2957 9.13569 14.9676
rtibia 20.5411
rfoot -21.8486 -10.1866
rtoes 0.98991
lfemur -31.5247 -8.42327 -22.2605
ltibia 32.5673
lfoot -16.0743 1.30224
ltoes -7.48206
2212
root -0.42741 15.9897 29.9675 -180.156 75.739 -196.044
lowerback -4.04723 0.660248 4.56666
upperback -6.5677 1.02111 -1.72553
thorax -4.4467 0.355477 -4.36188
lowerneck -0.173722 12.4876 19.9772
upperneck 29.2358 28.545 -23.7043
head 18.0233 14.1286 -8.20115
rclavicle -4.34935e-014 1.19271e-015
rhumerus -31.7599 -8.90322 -54.1859
rradius 20.6068
rwrist 20.0546
rhand -16.6363 -9.42508
rfingers 7.12502
rthumb 9.58627 -39.187
lclavicle -4.34935e-014 1.19271e-015
lhumerus -44.7821 9.22578 62.9773
lradius 38.8865
lwrist -16.4433
lhand -9.44737 14.3309
lfingers 7.12502
lthumb 16.5158 43.6479
rfemur -16.2005 8.95921 15.2078
rtibia 20.3879
rfoot -21.9104 -10.9065
rtoes 1.44381
lfemur -31.8062 -8.39251 -22.2574
ltibia 32.427
lfoot -16.0603 2.15277
ltoes -7.59197
